REM DIRINDEX 1\2,1\3,1\4,1\6,1\5\7,1\5\8
REM DIRNAME folder01,folder02,folder03,folder04,folder05,folder06,folder07,folder08
TITLE ""
FILE "DB4500_5th_3B_04.mp3" MP3
  TRACK 01 AUDIO
    TITLE "0:"
    INDEX 01 00:00:00
  TRACK 02 AUDIO
    TITLE "2:cjc114_1745"
    INDEX 01 00:00:01
  TRACK 03 AUDIO
    TITLE "0:"
    INDEX 01 00:01:21
  TRACK 04 AUDIO
    TITLE "3:cjc114_1746"
    INDEX 01 00:01:42
  TRACK 05 AUDIO
    TITLE "0:"
    INDEX 01 00:02:55
  TRACK 06 AUDIO
    TITLE "4:cjc114_1747"
    INDEX 01 00:03:06
  TRACK 07 AUDIO
    TITLE "0:"
    INDEX 01 00:06:30
  TRACK 08 AUDIO
    TITLE "2:cjc114_1748"
    INDEX 01 00:07:02
  TRACK 09 AUDIO
    TITLE "0:"
    INDEX 01 00:08:23
  TRACK 10 AUDIO
    TITLE "3:cjc114_1749"
    INDEX 01 00:08:48
  TRACK 11 AUDIO
    TITLE "0:"
    INDEX 01 00:09:57
  TRACK 12 AUDIO
    TITLE "4:cjc114_1750"
    INDEX 01 00:10:08
  TRACK 13 AUDIO
    TITLE "0:"
    INDEX 01 00:12:54
  TRACK 14 AUDIO
    TITLE "2:cjc114_1751"
    INDEX 01 00:13:28
  TRACK 15 AUDIO
    TITLE "0:"
    INDEX 01 00:14:43
  TRACK 16 AUDIO
    TITLE "3:cjc114_1752"
    INDEX 01 00:14:66
  TRACK 17 AUDIO
    TITLE "0:"
    INDEX 01 00:16:20
  TRACK 18 AUDIO
    TITLE "4:cjc114_1753"
    INDEX 01 00:16:48
  TRACK 19 AUDIO
    TITLE "0:"
    INDEX 01 00:20:53
  TRACK 20 AUDIO
    TITLE "2:cjc114_1754"
    INDEX 01 00:21:25
  TRACK 21 AUDIO
    TITLE "0:"
    INDEX 01 00:22:56
  TRACK 22 AUDIO
    TITLE "3:cjc114_1755"
    INDEX 01 00:23:04
  TRACK 23 AUDIO
    TITLE "0:"
    INDEX 01 00:24:33
  TRACK 24 AUDIO
    TITLE "4:cjc114_1756"
    INDEX 01 00:24:61
  TRACK 25 AUDIO
    TITLE "0:"
    INDEX 01 00:28:55
  TRACK 26 AUDIO
    TITLE "2:cjc114_1757"
    INDEX 01 00:29:27
  TRACK 27 AUDIO
    TITLE "0:"
    INDEX 01 00:30:44
  TRACK 28 AUDIO
    TITLE "3:cjc114_1758"
    INDEX 01 00:30:67
  TRACK 29 AUDIO
    TITLE "0:"
    INDEX 01 00:32:03
  TRACK 30 AUDIO
    TITLE "4:cjc114_1759"
    INDEX 01 00:32:27
  TRACK 31 AUDIO
    TITLE "0:"
    INDEX 01 00:35:51
  TRACK 32 AUDIO
    TITLE "2:cjc114_1760"
    INDEX 01 00:36:23
  TRACK 33 AUDIO
    TITLE "0:"
    INDEX 01 00:37:30
  TRACK 34 AUDIO
    TITLE "3:cjc114_1761"
    INDEX 01 00:37:57
  TRACK 35 AUDIO
    TITLE "0:"
    INDEX 01 00:39:23
  TRACK 36 AUDIO
    TITLE "4:cjc114_1762"
    INDEX 01 00:39:47
  TRACK 37 AUDIO
    TITLE "0:"
    INDEX 01 00:43:33
  TRACK 38 AUDIO
    TITLE "2:cjc114_1763"
    INDEX 01 00:44:05
  TRACK 39 AUDIO
    TITLE "0:"
    INDEX 01 00:45:18
  TRACK 40 AUDIO
    TITLE "3:cjc114_1764"
    INDEX 01 00:45:45
  TRACK 41 AUDIO
    TITLE "0:"
    INDEX 01 00:46:60
  TRACK 42 AUDIO
    TITLE "4:cjc114_1765"
    INDEX 01 00:47:11
  TRACK 43 AUDIO
    TITLE "0:"
    INDEX 01 00:51:48
  TRACK 44 AUDIO
    TITLE "2:cjc114_1766"
    INDEX 01 00:52:20
  TRACK 45 AUDIO
    TITLE "0:"
    INDEX 01 00:53:37
  TRACK 46 AUDIO
    TITLE "3:cjc114_1767"
    INDEX 01 00:53:62
  TRACK 47 AUDIO
    TITLE "0:"
    INDEX 01 00:55:12
  TRACK 48 AUDIO
    TITLE "4:cjc114_1768"
    INDEX 01 00:55:40
  TRACK 49 AUDIO
    TITLE "0:"
    INDEX 01 00:58:18
  TRACK 50 AUDIO
    TITLE "2:cjc114_1769"
    INDEX 01 00:58:66
  TRACK 51 AUDIO
    TITLE "0:"
    INDEX 01 01:00:08
  TRACK 52 AUDIO
    TITLE "3:cjc114_1770"
    INDEX 01 01:00:35
  TRACK 53 AUDIO
    TITLE "0:"
    INDEX 01 01:02:57
  TRACK 54 AUDIO
    TITLE "4:cjc114_1771"
    INDEX 01 01:03:10
  TRACK 55 AUDIO
    TITLE "0:"
    INDEX 01 01:06:73
  TRACK 56 AUDIO
    TITLE "2:cjc114_1772"
    INDEX 01 01:07:47
  TRACK 57 AUDIO
    TITLE "0:"
    INDEX 01 01:08:48
  TRACK 58 AUDIO
    TITLE "3:cjc114_1773"
    INDEX 01 01:09:01
  TRACK 59 AUDIO
    TITLE "0:"
    INDEX 01 01:11:35
  TRACK 60 AUDIO
    TITLE "4:cjc114_1774"
    INDEX 01 01:11:60
  TRACK 61 AUDIO
    TITLE "0:"
    INDEX 01 01:15:42
  TRACK 62 AUDIO
    TITLE "2:cjc114_1775"
    INDEX 01 01:16:14
  TRACK 63 AUDIO
    TITLE "0:"
    INDEX 01 01:17:14
  TRACK 64 AUDIO
    TITLE "3:cjc114_1776"
    INDEX 01 01:17:39
  TRACK 65 AUDIO
    TITLE "0:"
    INDEX 01 01:18:35
  TRACK 66 AUDIO
    TITLE "4:cjc114_1777"
    INDEX 01 01:18:60
  TRACK 67 AUDIO
    TITLE "0:"
    INDEX 01 01:22:42
  TRACK 68 AUDIO
    TITLE "2:cjc114_1778"
    INDEX 01 01:23:18
  TRACK 69 AUDIO
    TITLE "0:"
    INDEX 01 01:24:18
  TRACK 70 AUDIO
    TITLE "3:cjc114_1779"
    INDEX 01 01:24:45
  TRACK 71 AUDIO
    TITLE "0:"
    INDEX 01 01:25:43
  TRACK 72 AUDIO
    TITLE "4:cjc114_1780"
    INDEX 01 01:25:68
  TRACK 73 AUDIO
    TITLE "0:"
    INDEX 01 01:28:59
